<svg width="62" height="49" viewBox="0 0 62 49" fill="none" xmlns="http://www.w3.org/2000/svg">
<g id="Group">
<path id="Vector" d="M38.3765 17.2719C42.1977 18.7113 44.7278 15.0702 45.9348 11.0369C47.2154 6.34757 46.1148 1.63711 43.4156 0.324269C39.6152 -1.126 37.0643 2.52592 35.8573 6.55928C34.5762 11.2486 35.6773 15.9803 38.3765 17.2719Z" fill="#F84072"/>
<path id="Vector_2" d="M60.6154 16.1804C58.5938 12.7189 54.3274 13.3649 51.5861 16.1804C48.5796 19.1973 47.5319 23.8761 49.194 26.8291C51.2157 30.3223 55.5453 29.5917 58.2234 26.8291C61.2299 23.8019 62.2775 19.1546 60.6154 16.1804Z" fill="#F84072"/>
<path id="Vector_3" d="M19.9347 17.2712C25.2907 19.1553 27.1541 12.2006 25.6082 6.5586C24.7827 3.52052 23.1419 1.16002 21.1732 0.32359C15.8805 -1.54961 14.0068 5.3942 15.5417 11.0362C16.3672 14.0743 17.9976 16.4031 19.9346 17.2712H19.9347Z" fill="#F84072"/>
<path id="Vector_4" d="M12.2091 26.8509C13.8711 23.8974 12.823 19.219 9.81704 16.2022C7.07523 13.3654 2.80935 12.7194 0.787713 16.2022C-0.874264 19.1552 0.173381 23.8024 3.17978 26.8193C5.82615 29.6136 10.1875 30.3442 12.2091 26.851V26.8509Z" fill="#F84072"/>
<path id="Vector_5" d="M30.7028 20.5742C19.5139 20.5742 10.4102 29.3705 10.4102 40.1894C10.4102 47.0699 23.5143 49.0386 30.7028 48.9327C40.8015 48.9327 50.9954 46.2335 50.9954 40.1894C51.027 29.3709 41.9236 20.5742 30.7028 20.5742ZM38.7477 37.5109C38.7477 37.7916 38.6362 38.0605 38.4377 38.2595C38.2392 38.458 37.9699 38.5695 37.6892 38.5695H33.455V42.8037C33.455 43.0844 33.3435 43.3533 33.145 43.5522C32.9465 43.7507 32.6771 43.8622 32.3964 43.8622H28.9032C28.3187 43.8622 27.8447 43.3882 27.8447 42.8037V38.5695H23.6105C23.026 38.5695 22.552 38.0955 22.552 37.5109V33.9752C22.552 33.3906 23.026 32.9166 23.6105 32.9166H27.8447V28.6824C27.8447 28.0979 28.3187 27.6239 28.9032 27.6239H32.439C32.7197 27.6239 32.9886 27.7354 33.1876 27.9339C33.386 28.1324 33.4976 28.4017 33.4976 28.6824V32.9166H37.7318C38.0125 32.9166 38.2813 33.0281 38.4803 33.2266C38.6788 33.4251 38.7903 33.6945 38.7903 33.9752L38.7477 37.5109Z" fill="#F84072"/>
</g>
</svg>
